<?xml version="1.0" encoding="UTF-8" standalone="no"?>
<!-- Uploaded to: SVG Repo, www.svgrepo.com, Transformed by: SVG Repo Mixer Tools -->

<svg
   width="800px"
   height="800px"
   viewBox="0 0 24 24"
   fill="none"
   version="1.1"
   id="svg1"
   sodipodi:docname="icon-template.svg"
   inkscape:version="1.4.2 (f4327f4, 2025-05-13)"
   xml:space="preserve"
   xmlns:inkscape="http://www.inkscape.org/namespaces/inkscape"
   xmlns:sodipodi="http://sodipodi.sourceforge.net/DTD/sodipodi-0.dtd"
   xmlns="http://www.w3.org/2000/svg"
   xmlns:svg="http://www.w3.org/2000/svg"><defs
     id="defs1"><style
       id="style1-7">.cls-1{fill:none;stroke:#020202;stroke-miterlimit:10;stroke-width:1.91px;}</style></defs><sodipodi:namedview
     id="namedview1"
     pagecolor="#5a5ab0"
     bordercolor="#000000"
     borderopacity="0.25"
     inkscape:showpageshadow="2"
     inkscape:pageopacity="0.0"
     inkscape:pagecheckerboard="true"
     inkscape:deskcolor="#d1d1d1"
     showgrid="false"
     inkscape:zoom="1.51625"
     inkscape:cx="399.67024"
     inkscape:cy="400"
     inkscape:window-width="2880"
     inkscape:window-height="1514"
     inkscape:window-x="3829"
     inkscape:window-y="-11"
     inkscape:window-maximized="1"
     inkscape:current-layer="svg1" /><g
     id="SVGRepo_bgCarrier"
     stroke-width="0" /><g
     id="SVGRepo_tracerCarrier"
     stroke-linecap="round"
     stroke-linejoin="round" /><circle
     style="fill:#ffffff;stroke-width:0.0320335;fill-opacity:1"
     id="path2"
     cx="11.931458"
     cy="12.068152"
     transform="rotate(-0.32633563)"
     r="12" /><style
     type="text/css"
     id="style1">
<![CDATA[
	.st0{fill:#000000;}
]]>
</style><g
     style="fill:#5a5ab0;fill-opacity:1"
     id="g8"
     transform="matrix(0.78,0,0,0.78,2.3408573,2.756826)"><path
       fill-rule="evenodd"
       d="m 20,13 v -2 h 2 v 2 z m 0,3 v -2 h 2 v 2 z m 0,6 v -2 h 2 v 2 z m 0,-3 v -2 h 2 v 2 z m -3,3 v -2 h 2 v 2 z m -3,0 v -2 h 2 v 2 z m -6,0 v -2 h 2 v 2 z m 3,0 v -2 h 2 v 2 z m -6,0 v -2 h 2 v 2 z m 0,-3 v -2 h 2 v 2 z M 17,10 V 8 h 2 v 2 z m -3,0 V 8 h 2 v 2 z m 6,0 V 8 h 2 v 2 z M 6.6630123,7.4972592 C 6.1870389,7.8148588 5.6151405,8 5,8 3.3431458,8 2,6.6568543 2,5 2,3.3431458 3.3431458,2 5,2 6.6568543,2 8,3.3431458 8,5 8,5.3126667 7.9521681,5.6141617 7.8634224,5.8975668 L 10.333333,7.75 16.4,3.2 17.6,4.8 12,9 l 5.6,4.2 -1.2,1.6 -6.066667,-4.55 -2.4699106,1.852433 C 7.9521681,12.385838 8,12.687333 8,13 8,14.656854 6.6568543,16 5,16 3.3431458,16 2,14.656854 2,13 c 0,-1.656854 1.3431458,-3 3,-3 0.6151405,0 1.1870389,0.185141 1.6630123,0.502741 L 8.6666667,9 Z M 5,14 c 0.5522847,0 1,-0.447715 1,-1 0,-0.552285 -0.4477153,-1 -1,-1 -0.5522848,0 -1,0.447715 -1,1 0,0.552285 0.4477152,1 1,1 z M 5,6 C 5.5522847,6 6,5.5522847 6,5 6,4.4477152 5.5522847,4 5,4 4.4477152,4 4,4.4477152 4,5 4,5.5522847 4.4477152,6 5,6 Z"
       id="path1"
       style="fill:#5a5ab0;fill-opacity:1" /></g></svg>
