<?xml version="1.0" encoding="UTF-8" standalone="no"?>
<!-- Generator: Adobe Illustrator 15.0.0, SVG Export Plug-In  -->

<svg
   version="1.2"
   x="0px"
   y="0px"
   width="96px"
   height="96px"
   viewBox="0 -8.802 96 96"
   overflow="visible"
   xml:space="preserve"
   id="svg25"
   sodipodi:docname="MoviesCategory.svg"
   inkscape:version="1.4.2 (f4327f4, 2025-05-13)"
   xmlns:inkscape="http://www.inkscape.org/namespaces/inkscape"
   xmlns:sodipodi="http://sodipodi.sourceforge.net/DTD/sodipodi-0.dtd"
   xmlns="http://www.w3.org/2000/svg"
   xmlns:svg="http://www.w3.org/2000/svg"><sodipodi:namedview
   id="namedview25"
   pagecolor="#ffffff"
   bordercolor="#000000"
   borderopacity="0.25"
   inkscape:showpageshadow="2"
   inkscape:pageopacity="0.0"
   inkscape:pagecheckerboard="0"
   inkscape:deskcolor="#d1d1d1"
   inkscape:zoom="4.203125"
   inkscape:cx="36.520446"
   inkscape:cy="60.312268"
   inkscape:window-width="1920"
   inkscape:window-height="1009"
   inkscape:window-x="2552"
   inkscape:window-y="-8"
   inkscape:window-maximized="1"
   inkscape:current-layer="svg25" />
<defs
   id="defs1">
</defs>



<linearGradient
   id="SVGID_5_"
   gradientUnits="userSpaceOnUse"
   x1="51.8818"
   y1="49.2056"
   x2="51.8818"
   y2="35.0986">
	<stop
   offset="0"
   style="stop-color:#F6F5F6;stop-opacity:0.3"
   id="stop22" />
	<stop
   offset="1"
   style="stop-color:#F6F5F6;stop-opacity:0.7"
   id="stop23" />
</linearGradient>

<linearGradient
   id="SVGID_6_"
   gradientUnits="userSpaceOnUse"
   x1="51.8818"
   y1="71.3247"
   x2="51.8818"
   y2="57.2173">
	<stop
   offset="0"
   style="stop-color:#F6F5F6;stop-opacity:0.3"
   id="stop24" />
	<stop
   offset="1"
   style="stop-color:#F6F5F6;stop-opacity:0.7"
   id="stop25" />
</linearGradient>

<circle
   style="fill:#aaaaed;fill-opacity:1;stroke:#ffffff;stroke-width:0;stroke-dasharray:none"
   id="path26"
   cx="48"
   cy="39.198002"
   r="48" /><path
   d="M 41.037448,48.725132 V 29.141695 c 6.952314,3.271642 12.336863,6.431608 18.705166,9.838652 -5.252459,2.912901 -11.752852,6.181048 -18.705166,9.744785 M 79.782654,19.400751 c -1.19929,-1.580156 -3.24327,-2.80855 -5.41934,-3.215805 -6.39612,-1.214433 -46.29888,-1.217923 -52.69151,0 -1.745015,0.328039 -3.298856,1.117068 -4.633725,2.345814 -5.624392,5.220316 -3.862004,33.215097 -2.506304,37.750031 0.57009,1.962634 1.307051,3.379128 2.235185,4.308448 1.195803,1.228394 2.833054,2.073959 4.713645,2.453291 5.266379,1.089504 32.397766,1.698462 52.771489,0.164019 1.8771,-0.328032 3.53871,-1.200471 4.84922,-2.481214 5.20032,-5.199725 4.84576,-34.767687 0.68134,-41.324233"
   id="youtube-[#168]"
   style="fill:#ffffff;fill-opacity:1;fill-rule:evenodd;stroke:none;stroke-width:3.48975" /></svg>
