<?xml version="1.0" encoding="UTF-8" standalone="no"?>
<!-- Generator: Adobe Illustrator 15.0.0, SVG Export Plug-In  -->

<svg
   version="1.2"
   x="0px"
   y="0px"
   width="96px"
   height="96px"
   viewBox="0 -8.802 96 96"
   overflow="visible"
   xml:space="preserve"
   id="svg25"
   sodipodi:docname="ApplicationsCategory.svg"
   inkscape:version="1.4.2 (f4327f4, 2025-05-13)"
   xmlns:inkscape="http://www.inkscape.org/namespaces/inkscape"
   xmlns:sodipodi="http://sodipodi.sourceforge.net/DTD/sodipodi-0.dtd"
   xmlns="http://www.w3.org/2000/svg"
   xmlns:svg="http://www.w3.org/2000/svg"><sodipodi:namedview
   id="namedview25"
   pagecolor="#ffffff"
   bordercolor="#000000"
   borderopacity="0.25"
   inkscape:showpageshadow="2"
   inkscape:pageopacity="0.0"
   inkscape:pagecheckerboard="0"
   inkscape:deskcolor="#d1d1d1"
   inkscape:zoom="5.9441164"
   inkscape:cx="36.927272"
   inkscape:cy="52.404761"
   inkscape:window-width="1920"
   inkscape:window-height="1009"
   inkscape:window-x="2552"
   inkscape:window-y="-8"
   inkscape:window-maximized="1"
   inkscape:current-layer="svg25" />
<defs
   id="defs1">
</defs>



<linearGradient
   id="SVGID_5_"
   gradientUnits="userSpaceOnUse"
   x1="51.8818"
   y1="49.2056"
   x2="51.8818"
   y2="35.0986">
	<stop
   offset="0"
   style="stop-color:#F6F5F6;stop-opacity:0.3"
   id="stop22" />
	<stop
   offset="1"
   style="stop-color:#F6F5F6;stop-opacity:0.7"
   id="stop23" />
</linearGradient>

<linearGradient
   id="SVGID_6_"
   gradientUnits="userSpaceOnUse"
   x1="51.8818"
   y1="71.3247"
   x2="51.8818"
   y2="57.2173">
	<stop
   offset="0"
   style="stop-color:#F6F5F6;stop-opacity:0.3"
   id="stop24" />
	<stop
   offset="1"
   style="stop-color:#F6F5F6;stop-opacity:0.7"
   id="stop25" />
</linearGradient>

<circle
   style="fill:#aaaaed;fill-opacity:1;stroke:#ffffff;stroke-width:0;stroke-dasharray:none"
   id="path26"
   cx="48"
   cy="39.198002"
   r="48" /><g
   style="fill:#ffffff;fill-opacity:1"
   id="g26"
   transform="matrix(0.13861249,0,0,0.13861249,7.8381276,-0.22683911)"><path
     d="M 128,256 A 128,128 0 1 0 256,384 128,128 0 0 0 128,256 Z M 507,201.14 400.07,18.29 a 37.26,37.26 0 0 0 -64.14,0 L 229,201.14 c -14.24,24.38 3.58,54.86 32.09,54.86 h 213.82 c 28.51,0 46.33,-30.48 32.09,-54.86 z M 480,288 H 320 a 32,32 0 0 0 -32,32 v 160 a 32,32 0 0 0 32,32 h 160 a 32,32 0 0 0 32,-32 V 320 a 32,32 0 0 0 -32,-32 z"
     id="path1"
     style="fill:#ffffff;fill-opacity:1" /></g></svg>
